<svg width="23" height="19" viewBox="0 0 23 19" fill="none" xmlns="http://www.w3.org/2000/svg">
<path fill-rule="evenodd" clip-rule="evenodd" d="M22.8096 9.5C22.8076 7.4446 21.6244 5.57336 19.7684 4.69017V4.55807C19.7666 2.54664 18.4476 0.773777 16.5216 0.19399C14.5955 -0.385796 12.517 0.364346 11.4052 2.04054C10.2933 0.364346 8.21482 -0.385796 6.28876 0.19399C4.36271 0.773777 3.0437 2.54664 3.0419 4.55807V4.69017C1.1842 5.57102 -1.32931e-06 7.44309 -1.32931e-06 9.49905C-1.32931e-06 11.555 1.1842 13.4271 3.0419 14.3079V14.4419C3.0437 16.4534 4.36271 18.2262 6.28876 18.806C8.21482 19.3858 10.2933 18.6357 11.4052 16.9595C12.517 18.6357 14.5955 19.3858 16.5216 18.806C18.4476 18.2262 19.7666 16.4534 19.7684 14.4419V14.3079C21.6241 13.4254 22.8073 11.5548 22.8096 9.5ZM7.60368 17.4831C6.05078 17.4829 4.74749 16.3128 4.58055 14.7689C4.82641 14.8039 5.07444 14.8217 5.32279 14.8221H6.08309C6.50299 14.8221 6.84338 14.4817 6.84338 14.0618C6.84338 13.6419 6.50299 13.3015 6.08309 13.3015H5.32279C3.46954 13.3037 1.8848 11.9691 1.57156 10.1425C1.25832 8.31595 2.30786 6.52968 4.05595 5.91425C4.35951 5.80677 4.56244 5.5197 4.56249 5.19767V4.55807C4.56249 2.87847 5.92408 1.51688 7.60368 1.51688C9.28328 1.51688 10.6449 2.87847 10.6449 4.55807V11.0453C9.80998 10.2944 8.72657 9.87932 7.60368 9.88015C7.18378 9.88015 6.84338 10.2205 6.84338 10.6404C6.84338 11.0603 7.18378 11.4007 7.60368 11.4007C9.28328 11.4007 10.6449 12.7623 10.6449 14.4419C10.6449 16.1215 9.28328 17.4831 7.60368 17.4831ZM17.4875 13.3015H16.7272C16.3073 13.3015 15.9669 13.6419 15.9669 14.0618C15.9669 14.4817 16.3073 14.8221 16.7272 14.8221H17.4875C17.7359 14.8217 17.9839 14.8039 18.2298 14.7689C18.0538 16.3965 16.6208 17.5928 14.9879 17.4753C13.3549 17.3577 12.1081 15.9686 12.167 14.3325C12.2259 12.6964 13.5695 11.4005 15.2067 11.4007C15.6266 11.4007 15.9669 11.0603 15.9669 10.6404C15.9669 10.2205 15.6266 9.88015 15.2067 9.88015C14.0838 9.87932 13.0004 10.2944 12.1655 11.0453V4.55807C12.1655 2.87847 13.527 1.51688 15.2067 1.51688C16.8863 1.51688 18.2478 2.87847 18.2478 4.55807V5.19767C18.2479 5.5197 18.4508 5.80677 18.7544 5.91425C20.5025 6.52968 21.552 8.31595 21.2388 10.1425C20.9255 11.9691 19.3408 13.3037 17.4875 13.3015ZM19.0081 8.35955C19.0081 8.77945 18.6677 9.11985 18.2478 9.11985H17.8677C15.9781 9.11985 14.4464 7.58807 14.4464 5.69852V5.31837C14.4464 4.89847 14.7868 4.55807 15.2067 4.55807C15.6266 4.55807 15.9669 4.89847 15.9669 5.31837V5.69852C15.9669 6.74827 16.8179 7.59926 17.8677 7.59926H18.2478C18.6677 7.59926 19.0081 7.93965 19.0081 8.35955ZM4.94264 9.11985H4.56249C4.14259 9.11985 3.8022 8.77945 3.8022 8.35955C3.8022 7.93965 4.14259 7.59926 4.56249 7.59926H4.94264C5.99239 7.59926 6.84338 6.74827 6.84338 5.69852V5.31837C6.84338 4.89847 7.18378 4.55807 7.60368 4.55807C8.02358 4.55807 8.36398 4.89847 8.36398 5.31837V5.69852C8.36398 7.58807 6.83219 9.11985 4.94264 9.11985Z" fill="white"/>
</svg>
